<svg xmlns="http://www.w3.org/2000/svg" viewBox="0 0 1200 300" width="1200" height="300">
<defs><linearGradient id="line" x1="0" x2="1"><stop stop-color="#2563EB"/><stop offset=".55" stop-color="#7C3AED"/><stop offset="1" stop-color="#0891B2"/></linearGradient><pattern id="grid" width="32" height="32" patternUnits="userSpaceOnUse"><path d="M32 0H0V32" fill="none" stroke="#64748B" stroke-opacity=".08"/></pattern></defs>
<rect width="1200" height="300" rx="20" fill="#F8FAFC"/><rect width="1200" height="300" rx="20" fill="url(#grid)"/><rect x="46" y="42" width="1108" height="216" rx="16" fill="#FFFFFF" stroke="#E2E8F0"/>
<text x="78" y="86" fill="#0F172A" font-family="Arial,sans-serif" font-size="34" font-weight="700">K S Ashish</text><text x="78" y="113" fill="#64748B" font-family="Arial,sans-serif" font-size="14">DATA ANALYST  ·  BUSINESS INTELLIGENCE  ·  CONSUMER INSIGHTS</text>
<g font-family="Arial,sans-serif"><rect x="78" y="139" width="92" height="42" rx="9" fill="#EFF6FF"/><text x="124" y="165" text-anchor="middle" fill="#2563EB" font-size="12">SQL</text><rect x="180" y="139" width="92" height="42" rx="9" fill="#FFFBEB"/><text x="226" y="165" text-anchor="middle" fill="#B45309" font-size="12">POWER BI</text><rect x="282" y="139" width="92" height="42" rx="9" fill="#ECFDF5"/><text x="328" y="165" text-anchor="middle" fill="#15803D" font-size="12">EXCEL</text></g>
<text x="78" y="219" fill="#94A3B8" font-family="monospace" font-size="11">DATA → CLEAN → MODEL → ANALYZE → INSIGHT</text>
<g transform="translate(500 67)"><text x="0" y="0" fill="#64748B" font-family="Arial,sans-serif" font-size="11">ANALYTICS SIGNAL</text><path d="M0 145H610" stroke="#CBD5E1"/><path d="M0 35H610M0 90H610" stroke="#E2E8F0"/>
<path d="M0 132 L55 118 L108 126 L160 82 L215 96 L270 58 L326 75 L381 42 L438 62 L492 28 L550 48 L610 18" fill="none" stroke="url(#line)" stroke-width="3" stroke-linecap="round" stroke-linejoin="round" stroke-dasharray="900" stroke-dashoffset="900"><animate attributeName="stroke-dashoffset" from="900" to="0" dur="2.4s" fill="freeze"/></path>
<g fill="#0891B2"><circle cx="160" cy="82" r="4"><animate attributeName="r" values="3;6;3" dur="2.2s" repeatCount="indefinite"/></circle><circle cx="326" cy="75" r="4"><animate attributeName="r" values="3;6;3" dur="2.7s" repeatCount="indefinite"/></circle><circle cx="492" cy="28" r="4"><animate attributeName="r" values="3;6;3" dur="2.4s" repeatCount="indefinite"/></circle></g>
<rect x="448" y="96" width="162" height="36" rx="8" fill="#F8FAFC" stroke="#E2E8F0"/><text x="462" y="119" fill="#94A3B8" font-family="Arial,sans-serif" font-size="9">INSIGHT</text><text x="535" y="119" fill="#0891B2" font-family="monospace" font-size="12">+24.8%</text></g>
<rect x="46" y="42" width="1108" height="216" rx="16" fill="none" stroke="#2563EB" stroke-opacity=".15"/>
</svg>